<mxfile host="app.diagrams.net" modified="2023-10-27T02:30:37.634Z" agent="Mozilla/5.0 (Windows NT 10.0; Win64; x64) AppleWebKit/537.36 (KHTML, like Gecko) Chrome/118.0.0.0 Safari/537.36 Edg/118.0.2088.69" etag="XPX-4DsXoIT4W6_fD2w6" version="22.0.8" type="google">
  <diagram name="Page-1" id="V0BsXtO1z5sSv_0sSeDV">
    <mxGraphModel dx="1242" dy="569" grid="1" gridSize="10" guides="1" tooltips="1" connect="1" arrows="1" fold="1" page="1" pageScale="1" pageWidth="850" pageHeight="1100" math="0" shadow="0">
      <root>
        <mxCell id="0" />
        <mxCell id="1" parent="0" />
        <mxCell id="84fla97lxN4tbawrS8aS-3" value="" style="edgeStyle=orthogonalEdgeStyle;rounded=0;orthogonalLoop=1;jettySize=auto;html=1;" edge="1" parent="1" source="84fla97lxN4tbawrS8aS-1" target="84fla97lxN4tbawrS8aS-2">
          <mxGeometry relative="1" as="geometry" />
        </mxCell>
        <mxCell id="84fla97lxN4tbawrS8aS-1" value="stop" style="ellipse;whiteSpace=wrap;html=1;" vertex="1" parent="1">
          <mxGeometry x="380" y="50" width="120" height="50" as="geometry" />
        </mxCell>
        <mxCell id="84fla97lxN4tbawrS8aS-5" value="" style="edgeStyle=orthogonalEdgeStyle;rounded=0;orthogonalLoop=1;jettySize=auto;html=1;" edge="1" parent="1" source="84fla97lxN4tbawrS8aS-2" target="84fla97lxN4tbawrS8aS-4">
          <mxGeometry relative="1" as="geometry" />
        </mxCell>
        <mxCell id="84fla97lxN4tbawrS8aS-7" value="" style="edgeStyle=orthogonalEdgeStyle;rounded=0;orthogonalLoop=1;jettySize=auto;html=1;" edge="1" parent="1" source="84fla97lxN4tbawrS8aS-2" target="84fla97lxN4tbawrS8aS-6">
          <mxGeometry relative="1" as="geometry" />
        </mxCell>
        <mxCell id="84fla97lxN4tbawrS8aS-2" value="new user /already&amp;nbsp;&lt;br&gt;registered" style="rhombus;whiteSpace=wrap;html=1;" vertex="1" parent="1">
          <mxGeometry x="380" y="130" width="120" height="80" as="geometry" />
        </mxCell>
        <mxCell id="84fla97lxN4tbawrS8aS-9" value="" style="edgeStyle=orthogonalEdgeStyle;rounded=0;orthogonalLoop=1;jettySize=auto;html=1;" edge="1" parent="1" source="84fla97lxN4tbawrS8aS-4" target="84fla97lxN4tbawrS8aS-8">
          <mxGeometry relative="1" as="geometry" />
        </mxCell>
        <mxCell id="84fla97lxN4tbawrS8aS-4" value="login your account" style="whiteSpace=wrap;html=1;" vertex="1" parent="1">
          <mxGeometry x="270" y="250" width="120" height="60" as="geometry" />
        </mxCell>
        <mxCell id="84fla97lxN4tbawrS8aS-17" value="" style="edgeStyle=orthogonalEdgeStyle;rounded=0;orthogonalLoop=1;jettySize=auto;html=1;" edge="1" parent="1" source="84fla97lxN4tbawrS8aS-6" target="84fla97lxN4tbawrS8aS-16">
          <mxGeometry relative="1" as="geometry" />
        </mxCell>
        <mxCell id="84fla97lxN4tbawrS8aS-6" value="new user" style="whiteSpace=wrap;html=1;" vertex="1" parent="1">
          <mxGeometry x="480" y="260" width="120" height="50" as="geometry" />
        </mxCell>
        <mxCell id="84fla97lxN4tbawrS8aS-15" value="" style="edgeStyle=orthogonalEdgeStyle;rounded=0;orthogonalLoop=1;jettySize=auto;html=1;" edge="1" parent="1" source="84fla97lxN4tbawrS8aS-8" target="84fla97lxN4tbawrS8aS-14">
          <mxGeometry relative="1" as="geometry" />
        </mxCell>
        <mxCell id="84fla97lxN4tbawrS8aS-8" value="change number and&lt;br&gt;forget the password" style="whiteSpace=wrap;html=1;" vertex="1" parent="1">
          <mxGeometry x="270" y="330" width="120" height="50" as="geometry" />
        </mxCell>
        <mxCell id="84fla97lxN4tbawrS8aS-21" value="" style="edgeStyle=orthogonalEdgeStyle;rounded=0;orthogonalLoop=1;jettySize=auto;html=1;" edge="1" parent="1" source="84fla97lxN4tbawrS8aS-14" target="84fla97lxN4tbawrS8aS-20">
          <mxGeometry relative="1" as="geometry" />
        </mxCell>
        <mxCell id="84fla97lxN4tbawrS8aS-14" value="select one option" style="whiteSpace=wrap;html=1;" vertex="1" parent="1">
          <mxGeometry x="270" y="400" width="120" height="40" as="geometry" />
        </mxCell>
        <mxCell id="84fla97lxN4tbawrS8aS-19" value="" style="edgeStyle=orthogonalEdgeStyle;rounded=0;orthogonalLoop=1;jettySize=auto;html=1;" edge="1" parent="1" source="84fla97lxN4tbawrS8aS-16" target="84fla97lxN4tbawrS8aS-18">
          <mxGeometry relative="1" as="geometry" />
        </mxCell>
        <mxCell id="84fla97lxN4tbawrS8aS-16" value="login mobile number&amp;nbsp;&lt;br&gt;or email id" style="whiteSpace=wrap;html=1;" vertex="1" parent="1">
          <mxGeometry x="480" y="330" width="120" height="50" as="geometry" />
        </mxCell>
        <mxCell id="84fla97lxN4tbawrS8aS-18" value="give your details , mobile no etc" style="whiteSpace=wrap;html=1;" vertex="1" parent="1">
          <mxGeometry x="480" y="400" width="120" height="50" as="geometry" />
        </mxCell>
        <mxCell id="84fla97lxN4tbawrS8aS-24" value="" style="edgeStyle=orthogonalEdgeStyle;rounded=0;orthogonalLoop=1;jettySize=auto;html=1;" edge="1" parent="1" source="84fla97lxN4tbawrS8aS-20" target="84fla97lxN4tbawrS8aS-23">
          <mxGeometry relative="1" as="geometry" />
        </mxCell>
        <mxCell id="84fla97lxN4tbawrS8aS-20" value="your account&amp;nbsp;&lt;br&gt;updated" style="whiteSpace=wrap;html=1;" vertex="1" parent="1">
          <mxGeometry x="390" y="520" width="120" height="50" as="geometry" />
        </mxCell>
        <mxCell id="84fla97lxN4tbawrS8aS-22" value="" style="endArrow=none;html=1;rounded=0;" edge="1" parent="1">
          <mxGeometry width="50" height="50" relative="1" as="geometry">
            <mxPoint x="450" y="490" as="sourcePoint" />
            <mxPoint x="540" y="452" as="targetPoint" />
            <Array as="points">
              <mxPoint x="540" y="490" />
            </Array>
          </mxGeometry>
        </mxCell>
        <mxCell id="84fla97lxN4tbawrS8aS-23" value="stop" style="ellipse;whiteSpace=wrap;html=1;" vertex="1" parent="1">
          <mxGeometry x="410" y="620" width="80" height="50" as="geometry" />
        </mxCell>
        <mxCell id="84fla97lxN4tbawrS8aS-25" value="" style="endArrow=classic;html=1;rounded=0;entryX=0;entryY=0.5;entryDx=0;entryDy=0;" edge="1" parent="1" target="84fla97lxN4tbawrS8aS-16">
          <mxGeometry width="50" height="50" relative="1" as="geometry">
            <mxPoint x="390" y="360" as="sourcePoint" />
            <mxPoint x="440" y="310" as="targetPoint" />
          </mxGeometry>
        </mxCell>
      </root>
    </mxGraphModel>
  </diagram>
</mxfile>
